<svg fill="none" height="20" viewBox="0 0 20 20" width="20" xmlns="http://www.w3.org/2000/svg">
    <path d="M2.5 5H4.16667H17.5" stroke="#FF0022" stroke-linecap="round" stroke-linejoin="round"
        stroke-width="2" />
    <path
        d="M6.66699 5.00033V3.33366C6.66699 2.89163 6.84259 2.46771 7.15515 2.15515C7.46771 1.84259 7.89163 1.66699 8.33366 1.66699H11.667C12.109 1.66699 12.5329 1.84259 12.8455 2.15515C13.1581 2.46771 13.3337 2.89163 13.3337 3.33366V5.00033M15.8337 5.00033V16.667C15.8337 17.109 15.6581 17.5329 15.3455 17.8455C15.0329 18.1581 14.609 18.3337 14.167 18.3337H5.83366C5.39163 18.3337 4.96771 18.1581 4.65515 17.8455C4.34259 17.5329 4.16699 17.109 4.16699 16.667V5.00033H15.8337Z"
        stroke="#FF0022" stroke-linecap="round" stroke-linejoin="round" stroke-width="2" />
    <path d="M11.667 9.16699V14.167" stroke="#FF0022" stroke-linecap="round" stroke-linejoin="round"
        stroke-width="2" />
    <path d="M8.33301 9.16699V14.167" stroke="#FF0022" stroke-linecap="round" stroke-linejoin="round"
        stroke-width="2" />
</svg>
