<svg fill="none" height="20" viewBox="0 0 20 20" width="20" xmlns="http://www.w3.org/2000/svg">
    <path
        d="M10 9.08301C9.7569 9.08301 9.52374 9.17958 9.35183 9.35149C9.17992 9.5234 9.08335 9.75656 9.08335 9.99967V13.6663C9.08335 13.9095 9.17992 14.1426 9.35183 14.3145C9.52374 14.4864 9.7569 14.583 10 14.583C10.2431 14.583 10.4763 14.4864 10.6482 14.3145C10.8201 14.1426 10.9167 13.9095 10.9167 13.6663V9.99967C10.9167 9.75656 10.8201 9.5234 10.6482 9.35149C10.4763 9.17958 10.2431 9.08301 10 9.08301ZM10.3483 5.48967C10.1252 5.39799 9.87485 5.39799 9.65168 5.48967C9.53916 5.5333 9.43636 5.59872 9.34918 5.68217C9.26821 5.77128 9.2031 5.87359 9.15668 5.98467C9.10536 6.09346 9.08025 6.21276 9.08335 6.33301C9.08265 6.45365 9.10577 6.57324 9.15139 6.68492C9.19701 6.79661 9.26422 6.89819 9.34918 6.98384C9.43828 7.06481 9.54059 7.12992 9.65168 7.17634C9.79055 7.23339 9.94132 7.25546 10.0907 7.24061C10.2401 7.22576 10.3836 7.17444 10.5085 7.09115C10.6334 7.00787 10.736 6.89518 10.8071 6.76299C10.8783 6.6308 10.9159 6.48314 10.9167 6.33301C10.9133 6.0903 10.8184 5.85784 10.6508 5.68217C10.5637 5.59872 10.4609 5.5333 10.3483 5.48967ZM10 0.833008C8.18702 0.833008 6.41474 1.37062 4.90729 2.37787C3.39984 3.38512 2.22492 4.81675 1.53112 6.49174C0.837315 8.16673 0.655785 10.0098 1.00948 11.788C1.36318 13.5662 2.23622 15.1995 3.5182 16.4815C4.80018 17.7635 6.43353 18.6365 8.21169 18.9902C9.98985 19.3439 11.833 19.1624 13.5079 18.4686C15.1829 17.7748 16.6146 16.5999 17.6218 15.0924C18.6291 13.585 19.1667 11.8127 19.1667 9.99967C19.1667 8.79589 18.9296 7.60389 18.4689 6.49174C18.0082 5.37959 17.333 4.36907 16.4818 3.51786C15.6306 2.66666 14.6201 1.99145 13.5079 1.53078C12.3958 1.07011 11.2038 0.833008 10 0.833008ZM10 17.333C8.54962 17.333 7.13179 16.9029 5.92583 16.0971C4.71987 15.2913 3.77994 14.146 3.2249 12.806C2.66986 11.466 2.52463 9.99154 2.80759 8.56901C3.09055 7.14648 3.78898 5.83981 4.81456 4.81422C5.84015 3.78864 7.14682 3.09021 8.56935 2.80725C9.99188 2.52429 11.4664 2.66952 12.8064 3.22456C14.1463 3.7796 15.2917 4.71953 16.0975 5.92549C16.9033 7.13145 17.3333 8.54928 17.3333 9.99967C17.3333 11.9446 16.5607 13.8099 15.1855 15.1851C13.8102 16.5604 11.9449 17.333 10 17.333Z"
        fill="white" />
</svg>
