<svg fill="none" height="12" viewBox="0 0 12 12" width="12" xmlns="http://www.w3.org/2000/svg">
    <path
        d="M11.4267 5.65151C11.383 5.53899 11.3176 5.43619 11.2342 5.34901L6.65083 0.765678C6.56536 0.680209 6.4639 0.612412 6.35223 0.566157C6.24056 0.519901 6.12087 0.496094 6 0.496094C5.75589 0.496094 5.52178 0.593066 5.34917 0.765678C5.2637 0.851146 5.1959 0.952613 5.14964 1.06428C5.10339 1.17595 5.07958 1.29564 5.07958 1.41651C5.07958 1.66062 5.17655 1.89473 5.34917 2.06734L8.37417 5.08318H1.41667C1.17355 5.08318 0.940394 5.17975 0.768486 5.35166C0.596577 5.52357 0.5 5.75673 0.5 5.99984C0.5 6.24296 0.596577 6.47612 0.768486 6.64803C0.940394 6.81993 1.17355 6.91651 1.41667 6.91651H8.37417L5.34917 9.93234C5.26325 10.0176 5.19505 10.1189 5.14852 10.2306C5.10198 10.3424 5.07802 10.4622 5.07802 10.5832C5.07802 10.7042 5.10198 10.824 5.14852 10.9357C5.19505 11.0474 5.26325 11.1488 5.34917 11.234C5.43438 11.3199 5.53577 11.3881 5.64747 11.4347C5.75917 11.4812 5.87899 11.5052 6 11.5052C6.12101 11.5052 6.24082 11.4812 6.35253 11.4347C6.46423 11.3881 6.56562 11.3199 6.65083 11.234L11.2342 6.65068C11.3176 6.5635 11.383 6.4607 11.4267 6.34818C11.5183 6.125 11.5183 5.87468 11.4267 5.65151Z"
        fill="#131740" />
</svg>
