<svg fill="none" height="24" viewBox="0 0 24 24" width="24" xmlns="http://www.w3.org/2000/svg">
    <path
        d="M19.9 12.6604C19.7397 12.4779 19.6513 12.2433 19.6513 12.0004C19.6513 11.7575 19.7397 11.5229 19.9 11.3404L21.18 9.90038C21.3211 9.74305 21.4086 9.54509 21.4302 9.33489C21.4518 9.12469 21.4062 8.91307 21.3 8.73038L19.3 5.27038C19.1949 5.0879 19.0349 4.94326 18.8428 4.85707C18.6506 4.77088 18.4362 4.74754 18.23 4.79038L16.35 5.17038C16.1108 5.21981 15.8617 5.17997 15.6499 5.05838C15.438 4.93679 15.278 4.74187 15.2 4.51038L14.59 2.68038C14.5229 2.48176 14.3951 2.30925 14.2246 2.18723C14.0542 2.0652 13.8496 1.99984 13.64 2.00038H9.64C9.42194 1.989 9.20614 2.04931 9.02557 2.1721C8.845 2.29489 8.70958 2.4734 8.64 2.68038L8.08 4.51038C8.002 4.74187 7.84198 4.93679 7.63012 5.05838C7.41826 5.17997 7.16922 5.21981 6.93 5.17038L5 4.79038C4.80455 4.76276 4.6053 4.79361 4.42735 4.87902C4.2494 4.96444 4.1007 5.10061 4 5.27038L2 8.73038C1.89116 8.91103 1.84223 9.12147 1.86019 9.33161C1.87815 9.54174 1.96209 9.74082 2.1 9.90038L3.37 11.3404C3.53032 11.5229 3.61874 11.7575 3.61874 12.0004C3.61874 12.2433 3.53032 12.4779 3.37 12.6604L2.1 14.1004C1.96209 14.2599 1.87815 14.459 1.86019 14.6692C1.84223 14.8793 1.89116 15.0897 2 15.2704L4 18.7304C4.1051 18.9129 4.26512 19.0575 4.45726 19.1437C4.64939 19.2299 4.86383 19.2532 5.07 19.2104L6.95 18.8304C7.18922 18.781 7.43826 18.8208 7.65012 18.9424C7.86198 19.064 8.022 19.2589 8.1 19.4904L8.71 21.3204C8.77958 21.5274 8.915 21.7059 9.09557 21.8287C9.27614 21.9515 9.49194 22.0118 9.71 22.0004H13.71C13.9196 22.0009 14.1242 21.9356 14.2946 21.8135C14.4651 21.6915 14.5929 21.519 14.66 21.3204L15.27 19.4904C15.348 19.2589 15.508 19.064 15.7199 18.9424C15.9317 18.8208 16.1808 18.781 16.42 18.8304L18.3 19.2104C18.5062 19.2532 18.7206 19.2299 18.9128 19.1437C19.1049 19.0575 19.2649 18.9129 19.37 18.7304L21.37 15.2704C21.4762 15.0877 21.5218 14.8761 21.5002 14.6659C21.4786 14.4557 21.3911 14.2577 21.25 14.1004L19.9 12.6604ZM18.41 14.0004L19.21 14.9004L17.93 17.1204L16.75 16.8804C16.0298 16.7332 15.2806 16.8555 14.6446 17.2242C14.0086 17.5929 13.5301 18.1822 13.3 18.8804L12.92 20.0004H10.36L10 18.8604C9.76986 18.1622 9.29138 17.5729 8.65541 17.2042C8.01943 16.8355 7.27022 16.7132 6.55 16.8604L5.37 17.1004L4.07 14.8904L4.87 13.9904C5.36196 13.4404 5.63394 12.7283 5.63394 11.9904C5.63394 11.2525 5.36196 10.5404 4.87 9.99038L4.07 9.09038L5.35 6.89038L6.53 7.13038C7.25022 7.27761 7.99943 7.15526 8.63541 6.78658C9.27138 6.4179 9.74986 5.82854 9.98 5.13038L10.36 4.00038H12.92L13.3 5.14038C13.5301 5.83854 14.0086 6.4279 14.6446 6.79658C15.2806 7.16526 16.0298 7.28761 16.75 7.14038L17.93 6.90038L19.21 9.12038L18.41 10.0204C17.9236 10.5691 17.655 11.2771 17.655 12.0104C17.655 12.7437 17.9236 13.4516 18.41 14.0004ZM11.64 8.00038C10.8489 8.00038 10.0755 8.23498 9.41772 8.67451C8.75992 9.11403 8.24724 9.73874 7.94448 10.4696C7.64173 11.2006 7.56252 12.0048 7.71686 12.7807C7.8712 13.5567 8.25217 14.2694 8.81158 14.8288C9.37099 15.3882 10.0837 15.7692 10.8596 15.9235C11.6356 16.0779 12.4398 15.9987 13.1707 15.6959C13.9016 15.3932 14.5264 14.8805 14.9659 14.2227C15.4054 13.5649 15.64 12.7915 15.64 12.0004C15.64 10.9395 15.2186 9.9221 14.4684 9.17196C13.7183 8.42181 12.7009 8.00038 11.64 8.00038ZM11.64 14.0004C11.2444 14.0004 10.8578 13.8831 10.5289 13.6633C10.2 13.4436 9.94362 13.1312 9.79224 12.7657C9.64087 12.4003 9.60126 11.9982 9.67843 11.6102C9.7556 11.2222 9.94608 10.8659 10.2258 10.5862C10.5055 10.3065 10.8619 10.116 11.2498 10.0388C11.6378 9.96164 12.0399 10.0012 12.4054 10.1526C12.7708 10.304 13.0832 10.5603 13.3029 10.8892C13.5227 11.2181 13.64 11.6048 13.64 12.0004C13.64 12.5308 13.4293 13.0395 13.0542 13.4146C12.6791 13.7897 12.1704 14.0004 11.64 14.0004Z"
        fill="#999999" />
</svg>
