<svg fill="none" height="22" viewBox="0 0 22 22" width="22" xmlns="http://www.w3.org/2000/svg">
    <path
        d="M15.5835 2.74963C15.8243 2.50887 16.1101 2.31789 16.4246 2.18759C16.7392 2.0573 17.0763 1.99023 17.4168 1.99023C17.7573 1.99023 18.0945 2.0573 18.409 2.18759C18.7236 2.31789 19.0094 2.50887 19.2502 2.74963C19.4909 2.99038 19.6819 3.2762 19.8122 3.59077C19.9425 3.90533 20.0096 4.24248 20.0096 4.58296C20.0096 4.92344 19.9425 5.26059 19.8122 5.57515C19.6819 5.88972 19.4909 6.17554 19.2502 6.41629L6.87516 18.7913L1.8335 20.1663L3.2085 15.1246L15.5835 2.74963Z"
        stroke="white" stroke-linecap="round" stroke-linejoin="round" stroke-width="1.5" />
</svg>
