<svg fill="none" height="16" viewBox="0 0 16 16" width="16" xmlns="http://www.w3.org/2000/svg">
    <path
        d="M8.00032 7.19973C8.26403 7.19973 8.52182 7.12153 8.74108 6.97503C8.96035 6.82852 9.13125 6.62028 9.23216 6.37664C9.33308 6.13301 9.35949 5.86492 9.30804 5.60628C9.25659 5.34764 9.1296 5.11006 8.94313 4.92359C8.75666 4.73712 8.51909 4.61013 8.26045 4.55869C8.0018 4.50724 7.73372 4.53364 7.49008 4.63456C7.24645 4.73548 7.03821 4.90637 6.8917 5.12564C6.74519 5.34491 6.66699 5.60269 6.66699 5.8664C6.66699 6.22002 6.80747 6.55916 7.05752 6.80921C7.30756 7.05926 7.6467 7.19973 8.00032 7.19973ZM7.52699 11.8064C7.58897 11.8689 7.6627 11.9185 7.74394 11.9523C7.82518 11.9862 7.91232 12.0036 8.00032 12.0036C8.08833 12.0036 8.17547 11.9862 8.25671 11.9523C8.33795 11.9185 8.41168 11.8689 8.47366 11.8064L11.2003 9.07307C11.8336 8.44009 12.265 7.63352 12.4398 6.75537C12.6147 5.87722 12.5252 4.96694 12.1826 4.13966C11.8401 3.31238 11.2599 2.60527 10.5155 2.10777C9.77099 1.61027 8.89572 1.34473 8.00032 1.34473C7.10493 1.34473 6.22966 1.61027 5.4852 2.10777C4.74074 2.60527 4.16055 3.31238 3.818 4.13966C3.47546 4.96694 3.38596 5.87722 3.56081 6.75537C3.73566 7.63352 4.16702 8.44009 4.80033 9.07307L7.52699 11.8064ZM4.82033 5.55973C4.86588 5.08441 5.017 4.62526 5.26267 4.21581C5.50835 3.80636 5.84236 3.45694 6.24032 3.19307C6.76313 2.8498 7.3749 2.66691 8.00032 2.66691C8.62575 2.66691 9.23752 2.8498 9.76032 3.19307C10.1556 3.45603 10.4878 3.80333 10.7328 4.20999C10.9779 4.61665 11.1298 5.07255 11.1776 5.54492C11.2254 6.0173 11.1679 6.49439 11.0093 6.9419C10.8507 7.38942 10.5949 7.79622 10.2603 8.13307L8.00032 10.3931L5.74032 8.13307C5.40534 7.79949 5.14894 7.39542 4.9898 6.95027C4.83065 6.50512 4.77275 6.03008 4.82033 5.55973ZM12.667 13.3331H3.33366C3.15685 13.3331 2.98728 13.4033 2.86225 13.5283C2.73723 13.6534 2.66699 13.8229 2.66699 13.9997C2.66699 14.1765 2.73723 14.3461 2.86225 14.4711C2.98728 14.5962 3.15685 14.6664 3.33366 14.6664H12.667C12.8438 14.6664 13.0134 14.5962 13.1384 14.4711C13.2634 14.3461 13.3337 14.1765 13.3337 13.9997C13.3337 13.8229 13.2634 13.6534 13.1384 13.5283C13.0134 13.4033 12.8438 13.3331 12.667 13.3331Z"
        fill="#131740" />
</svg>
