<svg fill="none" height="23" viewBox="0 0 24 23" width="24" xmlns="http://www.w3.org/2000/svg">
    <path
        d="M12 9.18848C11.6044 9.18848 11.2178 9.29625 10.8889 9.49817C10.56 9.70009 10.3036 9.98708 10.1522 10.3229C10.0009 10.6586 9.96126 11.0281 10.0384 11.3846C10.1156 11.741 10.3061 12.0685 10.5858 12.3255C10.8655 12.5825 11.2219 12.7575 11.6098 12.8284C11.9978 12.8993 12.3999 12.8629 12.7654 12.7238C13.1308 12.5847 13.4432 12.3492 13.6629 12.047C13.8827 11.7448 14 11.3895 14 11.0261C14 10.5387 13.7893 10.0713 13.4142 9.7267C13.0391 9.38208 12.5304 9.18848 12 9.18848ZM5 9.18848C4.60444 9.18848 4.21776 9.29625 3.88886 9.49817C3.55996 9.70009 3.30362 9.98708 3.15224 10.3229C3.00087 10.6586 2.96126 11.0281 3.03843 11.3846C3.1156 11.741 3.30608 12.0685 3.58579 12.3255C3.86549 12.5825 4.22186 12.7575 4.60982 12.8284C4.99778 12.8993 5.39992 12.8629 5.76537 12.7238C6.13082 12.5847 6.44318 12.3492 6.66294 12.047C6.8827 11.7448 7 11.3895 7 11.0261C7 10.5387 6.78929 10.0713 6.41421 9.7267C6.03914 9.38208 5.53043 9.18848 5 9.18848ZM19 9.18848C18.6044 9.18848 18.2178 9.29625 17.8889 9.49817C17.56 9.70009 17.3036 9.98708 17.1522 10.3229C17.0009 10.6586 16.9613 11.0281 17.0384 11.3846C17.1156 11.741 17.3061 12.0685 17.5858 12.3255C17.8655 12.5825 18.2219 12.7575 18.6098 12.8284C18.9978 12.8993 19.3999 12.8629 19.7654 12.7238C20.1308 12.5847 20.4432 12.3492 20.6629 12.047C20.8827 11.7448 21 11.3895 21 11.0261C21 10.5387 20.7893 10.0713 20.4142 9.7267C20.0391 9.38208 19.5304 9.18848 19 9.18848Z"
        fill="#333333" />
</svg>
