<svg fill="none" height="16" viewBox="0 0 16 16" width="16" xmlns="http://www.w3.org/2000/svg">
    <path
        d="M3.33301 11.9996H6.15967C6.24741 12.0001 6.33439 11.9833 6.41561 11.9501C6.49684 11.917 6.57071 11.8681 6.63301 11.8063L11.2463 7.1863L13.1397 5.33297C13.2022 5.27099 13.2518 5.19726 13.2856 5.11602C13.3194 5.03478 13.3369 4.94764 13.3369 4.85963C13.3369 4.77163 13.3194 4.68449 13.2856 4.60325C13.2518 4.52201 13.2022 4.44828 13.1397 4.3863L10.313 1.5263C10.251 1.46381 10.1773 1.41422 10.0961 1.38037C10.0148 1.34653 9.92768 1.3291 9.83967 1.3291C9.75167 1.3291 9.66453 1.34653 9.58329 1.38037C9.50205 1.41422 9.42832 1.46381 9.36634 1.5263L7.48634 3.41297L2.85967 8.03297C2.79789 8.09526 2.749 8.16914 2.71583 8.25036C2.68265 8.33159 2.66583 8.41856 2.66634 8.5063V11.333C2.66634 11.5098 2.73658 11.6793 2.8616 11.8044C2.98663 11.9294 3.1562 11.9996 3.33301 11.9996ZM9.83967 2.93963L11.7263 4.8263L10.7797 5.77297L8.89301 3.8863L9.83967 2.93963ZM3.99967 8.77963L7.95301 4.8263L9.83967 6.71297L5.88634 10.6663H3.99967V8.77963ZM13.9997 13.333H1.99967C1.82286 13.333 1.65329 13.4032 1.52827 13.5282C1.40325 13.6533 1.33301 13.8228 1.33301 13.9996C1.33301 14.1764 1.40325 14.346 1.52827 14.471C1.65329 14.5961 1.82286 14.6663 1.99967 14.6663H13.9997C14.1765 14.6663 14.3461 14.5961 14.4711 14.471C14.5961 14.346 14.6663 14.1764 14.6663 13.9996C14.6663 13.8228 14.5961 13.6533 14.4711 13.5282C14.3461 13.4032 14.1765 13.333 13.9997 13.333Z"
        fill="#777777" />
</svg>
