<svg width="56" height="56" viewBox="0 0 56 56" fill="none" xmlns="http://www.w3.org/2000/svg">
    <path
        d="M55.1203 15.927H52.5883C52.2613 15.927 51.9613 16.023 51.8153 16.176L38.8363 28.546L10.1373 0.248C9.98433 0.095 9.68633 0 9.36033 0H6.82633C6.52333 0 6.23633 0.082 6.07633 0.221C5.92233 0.362 5.91433 0.534 6.05633 0.675L36.8193 31.07C36.9653 31.22 37.2673 31.314 37.5903 31.314H40.1283C40.4463 31.314 40.7553 31.216 40.9013 31.064L55.9013 16.596C56.0423 16.456 56.0303 16.282 55.8683 16.145C55.7123 16.009 55.4273 15.927 55.1203 15.927Z"
        fill="black" />
    <path
        d="M0.002 3.12695L0 56.12C6.774 49.452 25.909 30.614 26.67 29.919C27.164 29.464 26.701 29.128 26.645 29.087L26.52 28.995L0.002 3.12695Z"
        fill="#F8A71B" />
</svg>
